# xmcd
#
# Track frame offsets:
#	150
#	14494
#	29807
#	41811
#	56369
#	76989
#	85896
#	99371
#	115649
#	126767
#	135473
#	143195
#
# Disc length: 2097 seconds
# Revision: 0
# Processed by: cddbd v1.5.2PL0 Copyright (c) Steve Scherf et al.
# Submitted via: dBpowerAMP V12.0
#
DISCID=9b082f0c
DTITLE=Tex Ritter - Hillbilly Heaven [Capitol] (L)
DYEAR=1961
DGENRE=Country
TTITLE0=I Dreamed Of A Hillbilly Heaven
TTITLE1=Green Grow The Lilacs
TTITLE2=Love Me Now
TTITLE3=High Noon (Do Not Foraske Me)
TTITLE4=Deck Of Cards
TTITLE5=Jealous Heart
TTITLE6=Have I Stayed Away Too Long
TTITLE7=Ol' Shorty
TTITLE8=We Live In Two Diff'rent Worlds
TTITLE9=There's A New Moon Over My Shoulder
TTITLE10=Jingle Jangle Jingle
TTITLE11=Pledge Of Allegiance
EXTD=
EXTT0=
EXTT1=
EXTT2=
EXTT3=
EXTT4=
EXTT5=
EXTT6=
EXTT7=
EXTT8=
EXTT9=
EXTT10=
EXTT11=
PLAYORDER=
